<svg width="304" height="48" viewBox="0 0 304 48" fill="none" xmlns="http://www.w3.org/2000/svg">
<g clip-path="url(#clip0)">
<path d="M20.842 42.0644C20.585 35.062 20.32 28.0595 20.0469 21.0571C18.4327 27.1035 16.8426 33.15 15.3168 39.2088C14.2567 39.4571 13.7267 39.5813 12.6586 39.8358C10.3056 33.2431 9.14111 30.1392 6.88446 23.534C6.98886 30.8717 7.09326 38.2156 7.19766 45.5532C4.87677 46.1616 3.69624 46.4782 1.30307 47.13C1.30307 32.3988 1.30307 17.6614 1.30307 2.9302C3.1903 2.85571 4.13794 2.81846 6.01714 2.74397C8.25773 10.6341 10.8918 18.4622 13.7267 26.2344C15.8629 18.2449 17.983 10.2492 19.9425 2.23493C21.7976 2.17285 22.7292 2.14181 24.5763 2.08594C25.0662 14.992 25.6042 27.8981 26.0941 40.8042C24.0222 41.2885 22.9701 41.543 20.842 42.0644Z" fill="#EE0202" stroke="#EE0202" stroke-width="2" stroke-miterlimit="10" stroke-linecap="round" stroke-linejoin="round"/>
<path d="M28.3186 21.1006C27.7725 14.8928 30.6154 1.26038 38.5579 0.894115C45.9542 0.552684 49.6805 12.9559 49.8009 18.6547C49.9294 24.9495 46.9821 37.061 39.7705 38.5571C31.6996 40.2332 28.7362 25.9055 28.3186 21.1006ZM44.348 19.2072C44.1955 13.3346 41.7862 9.49818 38.8309 9.69062C35.8756 9.88307 33.6912 14.2099 33.9241 20.3929C34.157 26.5759 36.6064 30.3131 39.4894 29.8351C42.3725 29.3571 44.5006 25.0799 44.348 19.2072Z" fill="#EE0202" stroke="#EE0202" stroke-width="2" stroke-miterlimit="10" stroke-linecap="round" stroke-linejoin="round"/>
<path d="M71.7009 1C68.6412 11.9134 65.5012 22.8019 62.8269 33.7836C60.8031 34.0692 59.7913 34.2182 57.7595 34.5285C55.1414 23.4662 52.1781 12.4535 49.4075 1.40972C51.8087 1.35385 53.0133 1.32902 55.4145 1.27935C57.101 8.3625 58.8356 15.427 60.5783 22.504C62.3852 15.3525 64.3528 8.22593 66.1918 1.08691C68.4003 1.04966 69.5005 1.03104 71.7009 1Z" fill="#EE0202" stroke="#EE0202" stroke-width="2" stroke-miterlimit="10" stroke-linecap="round" stroke-linejoin="round"/>
<path d="M82.7673 5.7489C82.9038 3.65686 84.3172 1.90625 86.3008 1.90625C88.2845 1.90625 89.481 3.52029 89.3204 5.5875C89.1518 7.76645 87.7384 9.25633 85.7708 9.28737C83.8113 9.3122 82.6308 7.83474 82.7673 5.7489ZM82.96 11.367C85.0802 11.3235 86.1483 11.3049 88.2764 11.2677C87.7865 17.19 87.2565 23.1184 86.7988 29.0407C84.7107 29.1525 83.6748 29.2145 81.6269 29.3511C82.0445 23.3543 82.5183 17.3576 82.96 11.367Z" fill="#EE0202" stroke="#EE0202" stroke-width="2" stroke-miterlimit="10" stroke-linecap="round" stroke-linejoin="round"/>
<path d="M118.464 23.3973C118.4 25.9549 118.368 27.2586 118.304 30.0335C111.012 30.1266 107.59 30.2135 100.981 30.4805C101.583 20.5479 102.314 10.6216 102.9 0.689032C109.164 0.651785 112.313 0.645577 118.665 0.626953C118.593 3.43911 118.56 4.75517 118.496 7.33142C114.304 7.35004 112.24 7.36867 108.145 7.40591C108.032 9.40484 107.976 10.3733 107.863 12.3039C111.509 12.248 113.349 12.2294 117.099 12.2046C117.019 14.607 116.978 15.7803 116.906 18.1703C113.075 18.2076 111.196 18.2386 107.51 18.3131C107.39 20.3927 107.325 21.4356 107.205 23.5898C111.582 23.4842 113.83 23.447 118.464 23.3973Z" fill="#EE0202" stroke="#EE0202" stroke-width="2" stroke-miterlimit="10" stroke-linecap="round" stroke-linejoin="round"/>
<path d="M135.385 7.48697C132.823 7.48076 131.57 7.48076 128.952 7.48076C128.888 4.84863 128.848 3.50153 128.784 0.621094C136.116 0.621094 139.698 0.627302 146.917 0.645925C147.182 3.53878 147.311 4.8983 147.576 7.54284C145.062 7.52421 143.801 7.518 141.263 7.50559C141.858 15.0171 142.5 22.5286 143.054 30.0463C140.517 30.0152 139.232 30.0028 136.646 29.9842C136.252 22.4851 135.803 14.986 135.385 7.48697Z" fill="#EE0202" stroke="#EE0202" stroke-width="2" stroke-miterlimit="10" stroke-linecap="round" stroke-linejoin="round"/>
<path d="M168.367 24.0807C168.729 26.7004 168.905 28.0413 169.267 30.8783C162.593 30.5121 159.18 30.3879 152.161 30.2141C151.182 20.356 150.991 10.5104 150.036 0.652344C156.356 0.677175 159.496 0.689591 165.768 0.739254C166.129 3.61348 166.306 4.96059 166.659 7.59892C162.588 7.52442 159.558 7.49338 155.446 7.44993C155.687 9.45506 155.807 10.4297 156.04 12.3665C159.702 12.4286 161.525 12.4659 165.139 12.5528C165.484 15.0049 165.653 16.2092 165.99 18.6551C162.344 18.5309 160.505 18.4813 156.787 18.3944C157.044 20.4802 157.172 21.5293 157.438 23.6896C161.879 23.8138 164.055 23.8883 168.367 24.0807Z" fill="#EE0202" stroke="#EE0202" stroke-width="2" stroke-miterlimit="10" stroke-linecap="round" stroke-linejoin="round"/>
<path d="M188.214 0.993502C189.619 11.5717 190.179 22.1374 191.592 32.7156C189.769 32.5107 188.854 32.4114 187.015 32.2314C183.626 26.4581 179.803 20.7841 175.852 15.2281C176.784 21.4918 177.241 24.4343 178.173 31.4616C175.924 31.294 174.792 31.2133 172.511 31.0705C171.178 20.9641 170.635 10.8764 169.285 0.77002C171.149 0.788643 172.072 0.794851 173.927 0.813474C177.453 6.46261 180.277 12.0186 184.076 17.5622C183.136 11.1744 183.653 8.15735 182.713 0.9128C184.921 0.943839 186.022 0.956255 188.214 0.993502Z" fill="#EE0202" stroke="#EE0202" stroke-width="2" stroke-miterlimit="10" stroke-linecap="round" stroke-linejoin="round"/>
<path d="M192.181 1.05566C195.924 1.11774 197.795 1.15499 201.529 1.22948C210.925 2.48347 212.657 13.1237 213.268 18.9653C213.709 23.1928 214.087 35.2671 204.538 34.4663C200.956 33.8951 199.149 33.6406 195.487 33.1812C194.098 22.4665 193.554 11.7704 192.181 1.05566ZM203.414 26.7251C206.666 27.1348 208.441 24.0433 207.791 18.388C207.14 12.7326 204.538 9.1631 201.213 8.99549C199.816 8.9272 199.117 8.88996 197.712 8.82788C198.459 14.657 199.238 20.4862 199.985 26.3154C201.366 26.4706 202.049 26.5575 203.414 26.7251Z" fill="#EE0202" stroke="#EE0202" stroke-width="2" stroke-miterlimit="10" stroke-linecap="round" stroke-linejoin="round"/>
<path d="M231.843 31.9396C232.019 35.2919 232.116 36.999 232.292 40.5685C226.542 38.911 223.635 38.1847 217.733 36.9183C216.673 25.1296 215.524 13.3471 214.472 1.55225C220.64 1.71986 223.724 1.81298 229.875 2.03025C230.06 5.6308 230.148 7.34416 230.333 10.7088C226.454 10.3736 224.511 10.2184 220.608 9.93283C220.8 12.3911 220.897 13.5892 221.089 15.9669C224.478 16.3331 226.173 16.5256 229.538 16.9477C229.723 20.0889 229.819 21.6346 230.004 24.7634C226.695 24.1798 225.033 23.9067 221.7 23.4038C221.909 25.9801 222.013 27.2713 222.222 29.9159C226.093 30.667 228.02 31.0643 231.843 31.9396Z" fill="#EE0202" stroke="#EE0202" stroke-width="2" stroke-miterlimit="10" stroke-linecap="round" stroke-linejoin="round"/>
<path d="M242.588 32.7343C241.472 32.4425 240.909 32.2997 239.785 32.0204C239.922 36.2851 239.986 38.4393 240.122 43.0082C238.123 42.344 237.119 42.0212 235.095 41.4066C234.517 28.3267 233.891 15.2468 233.312 2.16064C236.894 2.29722 238.685 2.3655 242.267 2.5207C250.683 3.97954 251.06 14.4584 250.972 19.4247C250.86 25.6759 249.663 30.0835 247.43 32.0079C249.053 37.7192 249.84 40.6741 251.341 47.1302C249.221 46.2798 248.161 45.87 246.033 45.0817C244.7 39.8547 244.009 37.4212 242.588 32.7343ZM242.146 12.0187C240.942 11.8945 240.339 11.8325 239.135 11.7083C239.279 16.4697 239.36 18.748 239.504 23.3604C240.677 23.5777 241.255 23.6832 242.427 23.9129C244.604 24.3351 245.656 22.3361 245.599 18.5493C245.543 14.7005 244.387 12.2546 242.146 12.0187Z" fill="#EE0202" stroke="#EE0202" stroke-width="2" stroke-miterlimit="10" stroke-linecap="round" stroke-linejoin="round"/>
<path d="M73.3392 17.0656C73.6283 11.4723 74.9052 5.84802 77.6035 0.46582C78.9527 0.46582 78.0211 0.46582 79.3783 0.46582C77.1538 6.0715 75.4272 11.373 75.0899 16.9166C74.7526 22.3236 75.7645 27.5568 77.2582 33.1004C75.9974 33.206 76.9771 33.2556 75.7323 33.3674C73.7166 28.0286 73.0501 22.5161 73.3392 17.0656Z" fill="white" stroke="white" stroke-miterlimit="10" stroke-linecap="round" stroke-linejoin="round"/>
<path d="M90.6455 32.3865C92.8459 27.0788 94.7974 21.7277 95.3114 16.3331C95.8173 11.0254 94.7332 5.76111 93.2796 0.46582C94.6288 0.46582 93.6972 0.46582 95.0544 0.46582C97.2548 5.68041 97.4636 11.044 97.1745 16.2524C96.8854 21.5476 95.0946 27.0354 92.3641 32.2065C91.023 32.2748 91.9626 32.312 90.6455 32.3865Z" fill="white" stroke="white" stroke-miterlimit="10" stroke-linecap="round" stroke-linejoin="round"/>
<path fill-rule="evenodd" clip-rule="evenodd" d="M302.736 18.5872H272.685L301.55 10.0499C301.774 9.98338 301.964 9.8287 302.077 9.62006C302.189 9.41141 302.217 9.165 302.151 8.93567L300.641 3.61168C300.037 1.48568 298.098 0 295.924 0C295.466 0 295.01 0.0665499 294.568 0.196952L267.467 8.21262C266.214 8.58314 265.175 9.4339 264.542 10.6075C263.909 11.7811 263.76 13.1328 264.124 14.4116L265.599 19.6133V41.0397C265.599 43.7997 267.798 46.0444 270.501 46.0444H281.085C281.571 46.0444 281.966 45.6415 281.966 45.1451C281.966 44.6487 281.571 44.2458 281.085 44.2458H270.5C268.768 44.2458 267.36 42.8078 267.36 41.0397V28.8017H271.872H271.874H271.876H278.774H278.775H278.777H285.675H285.677H285.678H292.576H292.578H292.58H301.853V41.0406C301.853 42.8087 300.444 44.2467 298.713 44.2467H288.131C287.644 44.2467 287.25 44.6496 287.25 45.146C287.25 45.6424 287.644 46.0453 288.131 46.0453H298.714C301.418 46.0453 303.616 43.8006 303.616 41.0406V19.4865C303.617 18.9892 303.223 18.5872 302.736 18.5872ZM287.205 27.0031L290.947 20.3849H295.815L292.073 27.0031H287.205ZM280.303 27.0031L284.045 20.3849H288.913L285.171 27.0031H280.303ZM273.401 27.0031L277.142 20.3849H282.011L278.268 27.0031H273.401ZM276.675 15.3604L270.408 9.21446L275.104 7.82591C275.138 7.87537 275.175 7.92123 275.219 7.9644L281.487 14.1104L276.791 15.4989C276.758 15.4504 276.72 15.4036 276.675 15.3604ZM288.478 4.04335L294.746 10.1893L290.05 11.5779C290.016 11.5284 289.979 11.4817 289.934 11.4394L283.667 5.29341L288.363 3.90486C288.396 3.95432 288.434 4.00019 288.478 4.04335ZM281.849 6.00478L288.116 12.1499L283.421 13.5393C283.387 13.4898 283.349 13.4431 283.305 13.4008L277.038 7.25484L281.734 5.86628C281.767 5.91485 281.805 5.96161 281.849 6.00478ZM295.058 1.92455C295.341 1.84091 295.633 1.79865 295.925 1.79865C297.318 1.79865 298.562 2.75013 298.949 4.1126L300.215 8.57234L296.681 9.61736C296.647 9.56789 296.608 9.52203 296.564 9.47886L290.298 3.33379L295.058 1.92455ZM266.085 11.4754C266.491 10.7226 267.156 10.1776 267.957 9.94021L268.475 9.78733C268.509 9.83679 268.547 9.88356 268.59 9.92583L274.857 16.0718L267.081 18.3723L265.815 13.9125C265.582 13.0941 265.678 12.229 266.085 11.4754ZM267.36 20.3858H275.109L271.367 27.004H267.36V20.3858ZM294.107 27.0031L297.849 20.3849H301.855V27.0031H294.107Z" fill="white"/>
<path fill-rule="evenodd" clip-rule="evenodd" d="M290.697 36.4326C290.697 36.1115 290.529 35.8139 290.257 35.6538L282.518 31.0924C282.246 30.9314 281.909 30.9314 281.637 31.0924C281.365 31.2534 281.197 31.5502 281.197 31.8712V40.9949C281.197 41.3159 281.365 41.6127 281.637 41.7737C281.774 41.8537 281.925 41.8942 282.078 41.8942C282.23 41.8942 282.381 41.8537 282.518 41.7737L290.257 37.2123C290.53 37.0513 290.697 36.7545 290.697 36.4326Z" fill="#EE0202"/>
<path fill-rule="evenodd" clip-rule="evenodd" d="M284.606 44.2466C284.121 44.2466 283.726 44.6504 283.726 45.1459C283.726 45.6414 284.121 46.0452 284.606 46.0452C285.092 46.0452 285.487 45.6414 285.487 45.1459C285.487 44.6504 285.092 44.2466 284.606 44.2466Z" fill="white"/>
</g>
<defs>
<clipPath id="clip0">
<rect width="304" height="48" fill="white"/>
</clipPath>
</defs>
</svg>
